HIERARCHY
ROOT hip
{
  OFFSET 0 0 0
  CHANNELS 6 Xposition Yposition Zposition Zrotation Yrotation Xrotation
  JOINT abdomen
  {
    OFFSET 0 20.6881 -0.73152
    CHANNELS 3 Zrotation Xrotation Yrotation
    JOINT chest
    {
      OFFSET 0 11.7043 -0.48768
      CHANNELS 3 Zrotation Xrotation Yrotation
      JOINT neck
      {
        OFFSET 0 22.1894 -2.19456
        CHANNELS 3 Zrotation Xrotation Yrotation
        JOINT head
        {
          OFFSET -0.24384 7.07133 1.2192
          CHANNELS 3 Zrotation Xrotation Yrotation
          JOINT leftEye
          {
            OFFSET 4.14528 8.04674 8.04672
            CHANNELS 3 Zrotation Xrotation Yrotation
            End Site
            {
              OFFSET 1 0 0
            }
          }
          JOINT rightEye
          {
            OFFSET -3.6576 8.04674 8.04672
            CHANNELS 3 Zrotation Xrotation Yrotation
            End Site
            {
              OFFSET 1 0 0
            }
          }
        }
      }
      JOINT rCollar
      {
        OFFSET -2.68224 19.2634 -4.8768
        CHANNELS 3 Zrotation Xrotation Yrotation
        JOINT rShldr
        {
          OFFSET -8.77824 -1.95073 1.46304
          CHANNELS 3 Zrotation Xrotation Yrotation
          JOINT rForeArm
          {
            OFFSET -28.1742 -1.7115 0.48768
            CHANNELS 3 Zrotation Xrotation Yrotation
            JOINT rHand
            {
              OFFSET -22.5879 0.773209 7.07136
              CHANNELS 3 Zrotation Xrotation Yrotation
              JOINT rThumb1
              {
                OFFSET -1.2192 -0.487915 3.41376
                CHANNELS 3 Zrotation Xrotation Yrotation
                JOINT rThumb2
                {
                  OFFSET -3.37035 -0.52449 3.41376
                  CHANNELS 3 Zrotation Xrotation Yrotation
                  End Site
                  {
                    OFFSET -1.78271 -1.18214 1.43049
                  }
                }
              }
              JOINT rIndex1
              {
                OFFSET -7.75947 0.938293 5.60832
                CHANNELS 3 Zrotation Xrotation Yrotation
                JOINT rIndex2
                {
                  OFFSET -2.54057 -0.884171 1.56538
                  CHANNELS 3 Zrotation Xrotation Yrotation
                  End Site
                  {
                    OFFSET -1.62519 -0.234802 1.16502
                  }
                }
              }
              JOINT rMid1
              {
                OFFSET -8.24714 1.18213 3.41376
                CHANNELS 3 Zrotation Xrotation Yrotation
                JOINT rMid2
                {
                  OFFSET -3.10165 -0.590103 1.0647
                  CHANNELS 3 Zrotation Xrotation Yrotation
                  End Site
                  {
                    OFFSET -2.48547 -0.328903 0.83742
                  }
                }
              }
              JOINT rRing1
              {
                OFFSET -8.82822 0.546677 1.51678
                CHANNELS 3 Zrotation Xrotation Yrotation
                JOINT rRing2
                {
                  OFFSET -2.60934 -0.819778 -0.0198488
                  CHANNELS 3 Zrotation Xrotation Yrotation
                  End Site
                  {
                    OFFSET -2.33842 -0.294052 0.168128
                  }
                }
              }
              JOINT rPinky1
              {
                OFFSET -8.27202 -0.0477905 -0.4584
                CHANNELS 3 Zrotation Xrotation Yrotation
                JOINT rPinky2
                {
                  OFFSET -1.82734 -0.647385 -0.700984
                  CHANNELS 3 Zrotation Xrotation Yrotation
                  End Site
                  {
                    OFFSET -1.69225 -0.51767 -0.607171
                  }
                }
              }
            }
          }
        }
      }
      JOINT lCollar
      {
        OFFSET 2.68224 19.2634 -4.8768
        CHANNELS 3 Zrotation Xrotation Yrotation
        JOINT lShldr
        {
          OFFSET 8.77824 -1.95073 1.46304
          CHANNELS 3 Zrotation Xrotation Yrotation
          JOINT lForeArm
          {
            OFFSET 28.1742 -1.7115 0.48768
            CHANNELS 3 Zrotation Xrotation Yrotation
            JOINT lHand
            {
              OFFSET 22.5879 0.773209 7.07136
              CHANNELS 3 Zrotation Xrotation Yrotation
              JOINT lThumb1
              {
                OFFSET 1.2192 -0.487915 3.41376
                CHANNELS 3 Zrotation Xrotation Yrotation
                JOINT lThumb2
                {
                  OFFSET 3.37035 -0.52449 3.41376
                  CHANNELS 3 Zrotation Xrotation Yrotation
                  End Site
                  {
                    OFFSET 1.78271 -1.18214 1.43049
                  }
                }
              }
              JOINT lIndex1
              {
                OFFSET 7.75947 0.938293 5.60832
                CHANNELS 3 Zrotation Xrotation Yrotation
                JOINT lIndex2
                {
                  OFFSET 2.54057 -0.884171 1.56538
                  CHANNELS 3 Zrotation Xrotation Yrotation
                  End Site
                  {
                    OFFSET 1.62519 -0.234802 1.16502
                  }
                }
              }
              JOINT lMid1
              {
                OFFSET 8.24714 1.18213 3.41376
                CHANNELS 3 Zrotation Xrotation Yrotation
                JOINT lMid2
                {
                  OFFSET 3.10165 -0.590103 1.0647
                  CHANNELS 3 Zrotation Xrotation Yrotation
                  End Site
                  {
                    OFFSET 2.48547 -0.328903 0.83742
                  }
                }
              }
              JOINT lRing1
              {
                OFFSET 8.82822 0.546677 1.51678
                CHANNELS 3 Zrotation Xrotation Yrotation
                JOINT lRing2
                {
                  OFFSET 2.60934 -0.819778 -0.0198488
                  CHANNELS 3 Zrotation Xrotation Yrotation
                  End Site
                  {
                    OFFSET 2.33842 -0.294052 0.168128
                  }
                }
              }
              JOINT lPinky1
              {
                OFFSET 8.27202 -0.0477905 -0.4584
                CHANNELS 3 Zrotation Xrotation Yrotation
                JOINT lPinky2
                {
                  OFFSET 1.82734 -0.647385 -0.700984
                  CHANNELS 3 Zrotation Xrotation Yrotation
                  End Site
                  {
                    OFFSET 1.69225 -0.51767 -0.607171
                  }
                }
              }
            }
          }
        }
      }
    }
  }
  JOINT rButtock
  {
    OFFSET -8.77824 4.35084 1.2192
    CHANNELS 3 Zrotation Xrotation Yrotation
    JOINT rThigh
    {
      OFFSET 0 -1.70687 -2.19456
      CHANNELS 3 Zrotation Xrotation Yrotation
      JOINT rShin
      {
        OFFSET 0 -36.8199 0.73152
        CHANNELS 3 Zrotation Xrotation Yrotation
        JOINT rFoot
        {
          OFFSET 0.73152 -45.1104 -5.12064
          CHANNELS 3 Zrotation Xrotation Yrotation
          End Site
          {
            OFFSET -1.1221 -3.69964 12.103
          }
        }
      }
    }
  }
  JOINT lButtock
  {
    OFFSET 8.77824 4.35084 1.2192
    CHANNELS 3 Zrotation Xrotation Yrotation
    JOINT lThigh
    {
      OFFSET 0 -1.70687 -2.19456
      CHANNELS 3 Zrotation Xrotation Yrotation
      JOINT lShin
      {
        OFFSET 0 -36.8199 0.73152
        CHANNELS 3 Zrotation Xrotation Yrotation
        JOINT lFoot
        {
          OFFSET -0.73152 -45.1104 -5.12064
          CHANNELS 3 Zrotation Xrotation Yrotation
          End Site
          {
            OFFSET 1.1221 -3.69964 12.103
          }
        }
      }
    }
  }
}
MOTION
Frames:	7
Frame Time:	0.03333
-0.9533 60.8893 1.5495 -8.91341 -23.306721 4.029915 1.14966 7.134403 153.738101 -7.279259 6.594388 -136.026373 5.152537 14.394659 38.780318 -9.905195 -16.465666 -11.594412 -0.004072 -0.0 0.001374 -0.004072 -0.0 0.001374 -98.678958 66.849742 101.977796 91.778065 -30.633657 82.056999 -71.166046 -37.069884 105.415242 -164.23197 -32.79703 161.61346 -14.975268 13.785796 4.057143 -110.073524 -5.477722 98.187628 -4.254937 6.568728 2.565469 1.169602 12.994305 2.482142 -9.809947 23.630068 6.720946 18.271222 -42.639959 -0.059006 -145.108334 -0.907087 -178.845115 11.866804 56.081641 -2.1635 -8.863823 -18.729108 -8.375851 -21.176355 -39.10207 -22.344965 68.050814 68.103576 -71.018231 87.736997 21.488164 -65.371994 -128.755307 1.405235 67.320988 151.756853 70.443083 -132.91941 172.003612 -9.68456 -89.946512 -55.875286 -68.428556 -43.121721 -16.835522 -30.25791 5.890263 16.344202 34.845829 -13.864189 -2.130892 -6.400478 1.095904 -2.809898 1.170815 -0.133288 145.120933 2.243012 179.832756 155.875443 3.345544 179.647401 -0.144094 0.376499 -0.131211 159.194499 54.529462 150.049035 -179.821542 75.749253 -0.137882 166.185316 33.662907 163.235782 117.037039 -73.731944 -143.784534 41.949926 -6.918841 52.890599 179.858553 75.749987 0.108563 -134.198787 -5.114896 78.788934 88.410844 6.756824 23.312107 -117.945714 -41.130542 137.933223
-0.927 60.87630000000001 1.5393999999999999 -8.959864 -23.316462 4.110946 2.297816 11.635286 -0.539656 2.61326 -13.672068 18.206118 -9.628172 27.744216 -103.884638 27.77824 24.496695 129.826043 0.00076 -0.0 -0.00365 0.001114 -0.0 -0.00154 0.537634 -3.355745 -0.729077 -111.964033 -7.53282 -176.417875 -3.653838 45.466441 -141.718182 -136.058714 33.602501 124.056261 -160.134097 2.134487 88.892359 -12.274454 -40.779782 11.630489 37.179559 -57.883965 -0.661236 -38.666247 48.408975 31.451244 -163.050635 -14.167799 144.229836 -163.502495 -5.330375 143.023034 -0.005602 3.33933 1.051928 -156.582091 -47.079402 177.690083 -13.010148 -25.048724 -12.374408 -164.373248 68.375628 -149.035396 155.017232 -0.452422 -161.175953 168.949119 -56.665778 123.468687 152.467465 -68.594186 65.255938 6.065409 36.03889 -3.197363 91.463822 38.21964 -51.943628 108.168715 -10.27059 -71.021237 22.29273 26.810918 -15.879638 175.400603 -28.248192 -108.959947 4.230687 11.430028 -2.623315 144.807463 36.747016 -131.930927 0.101251 -4.840226 1.526852 -9.823546 10.80919 -1.360366 -8.948068 28.591455 -7.831207 143.071364 -2.533835 139.589193 -179.990641 75.748706 -0.007723 166.485851 35.777952 7.757418 114.005529 78.863301 171.858733 -163.26351 -13.753426 -38.731098 179.999194 75.748706 0.000184 -134.33201 -5.480071 95.476006 90.22764 0.075916 124.404076 150.331804 10.06161 -151.644408
-0.8947999999999999 60.8683 1.5337 -8.97538 -23.391337 4.15858 1.179421 7.130806 153.360011 -7.31061 6.632129 -135.553402 -2.67392 32.783607 -153.426706 7.466655 37.915678 -178.025556 -0.00012 0.0 -0.002131 0.000231 -0.0 -2.1e-05 2.127323 -15.223819 -3.105718 -111.365143 -16.62152 -165.96136 5.407805 38.03409 -148.069081 -129.114662 38.815392 116.539922 -9.052516 8.623336 2.053185 -6.925044 7.672906 11.12263 -140.472311 1.841164 116.057373 15.713027 -13.278119 -10.329396 2.215653 -6.662992 -1.135612 -43.70186 59.128429 37.604319 -0.012781 3.911046 1.230653 8.434347 17.096062 2.333135 -72.087837 -51.802863 -70.592238 -158.066937 50.792645 -148.504133 145.983611 33.282025 -150.62747 56.28176 9.440804 -6.045116 -172.817659 23.502262 83.443246 15.535847 55.558097 -7.524366 -33.189397 -30.551639 -4.257484 128.658908 4.785728 -110.595115 -27.237909 -46.836791 4.836304 147.417059 1.013142 -111.637956 136.682164 40.798308 -125.305961 78.354148 64.102405 -70.703074 0.001818 -0.27912 0.088259 156.283436 -47.347601 -177.72017 -34.372277 84.222415 -4.20024 42.454703 -49.371491 41.888406 -3.6e-05 -0.000529 -1.5e-05 -12.903164 -40.123688 -116.761184 -102.918786 -0.405077 -92.499886 46.803761 20.194653 139.460218 179.988724 75.748549 0.008383 -134.284894 -5.064531 73.735914 83.244745 23.693428 -175.103848 149.528245 -7.06669 -97.51554
-0.8706 60.8611 1.5303 -8.904267 -23.512255 4.170476 2.296023 11.694014 -2.664703 3.066447 -13.604955 20.591113 -8.627355 29.269463 -114.833363 24.707299 28.838788 140.510508 -0.001994 0.0 -0.001178 -0.001994 0.0 -0.001178 -80.486124 -86.872983 -102.50901 -72.701628 -42.612354 -78.755067 -157.297362 -26.20884 -57.754698 -31.498417 -75.672906 -37.236499 0.311348 -0.306384 -0.046377 -39.610628 26.90466 35.382623 -125.99629 20.676655 106.099269 -159.948182 -4.87002 117.353104 6.112686 -19.061443 -2.60526 -146.503096 34.403519 133.18229 -145.103583 4.052422 179.597124 11.706859 34.215468 -5.105517 -120.667035 -33.551248 -118.541663 23.078395 59.165944 6.672611 155.936013 -6.429639 -162.447569 -142.125075 3.200976 151.923775 -25.00328 -28.525878 -105.821726 22.10314 63.157743 -12.097306 -11.085445 -11.068207 0.640631 24.218363 21.984795 -15.108535 152.399898 -19.108691 -121.456195 8.272479 32.379282 -0.45367 160.966247 -7.576034 -143.379458 -3.568447 -1.025675 -0.230068 0.027976 -2.169402 0.682822 -10.182612 -60.795801 8.700736 -13.25136 45.372885 -10.922276 151.292919 22.315519 145.605459 179.994735 75.750493 0.004741 168.152381 34.405967 -91.18416 -89.864025 7.810664 90.459125 168.579789 -8.951824 43.420883 0.002557 0.001821 0.002754 83.798034 -44.158311 174.734749 92.06038 -9.016202 74.161968 -112.776158 3.252758 162.109488
-0.8435 60.854200000000006 1.525 -8.856663 -23.648415 4.175676 0.622991 7.45663 141.789573 -9.020877 4.961243 -123.792032 -9.312248 28.329443 -108.168646 26.670382 26.270929 133.9666 -0.001589 0.0 -0.000233 -0.001235 -0.0 0.001873 4.275026 -47.440653 -9.213411 -124.308855 -10.620913 -144.806241 26.292282 55.932294 -168.184913 -113.106422 45.844993 99.602996 -165.274966 -2.947969 89.648184 -149.243021 2.484874 75.334507 6.570842 -11.347405 -3.245025 164.39317 -49.914454 96.0325 -161.258784 -8.489292 143.511959 -178.648998 -45.975017 141.608966 -0.011348 3.799137 1.193972 -149.656569 41.281791 164.124026 -1.522361 -3.820612 -1.410114 -17.789878 -35.723675 -18.781758 -3.117308 -24.978325 4.917116 -70.198841 13.827109 -14.081614 142.733998 10.268388 -42.125667 -113.179655 -63.521247 -100.65331 -178.953814 -18.448792 -89.096587 8.563259 -53.67999 0.630969 137.601153 6.22357 -114.306436 169.21086 -25.96597 -118.305943 -6.935032 -21.707856 2.815355 177.310005 -43.903984 -142.585569 1.475384 23.730901 -7.892023 -7.660963 10.431379 -0.932097 100.112439 -46.641914 98.326192 144.146651 4.826518 140.720824 -0.005541 0.000526 -0.005338 -12.858616 -39.482572 -72.77818 -103.423509 36.950919 -31.780723 -173.496272 -6.098985 -89.467738 0.002472 0.000526 0.000895 84.041804 -41.848293 -4.756374 -85.04141 14.737487 170.445559 -4.188749 -6.8759 -90.388646
-0.8274 60.8467 1.5233 -8.828814 -23.712407 4.203378 2.836623 11.577971 -18.579407 6.057992 -12.336968 36.772053 8.341145 16.74289 60.279245 -18.868288 -9.912028 -33.576149 0.001458 0.0 0.002314 0.001458 0.0 0.002314 3.327589 -63.523419 -13.552565 -147.303908 1.722312 -139.678241 -175.106288 77.35595 30.839134 -130.771309 37.706318 118.342508 0.37762 -0.37209 -0.056781 7.397186 -10.441791 -6.16573 -159.13236 -31.458763 122.659469 -15.940424 41.033246 7.195904 -83.017482 61.106147 74.70277 179.942531 -49.39302 141.000342 -0.75341 -15.011542 -4.849969 -154.745716 -10.853042 173.333284 -160.814838 68.318946 -151.110752 -149.326898 14.522562 -142.838306 154.738669 -74.069378 179.73137 150.00429 11.809385 130.621652 -30.661261 50.811319 149.924887 -163.013723 -21.727234 -144.825502 -2.861725 -2.845225 0.369972 155.84886 -68.942891 -121.086007 137.678122 6.111355 -114.353328 172.673076 -32.063252 -117.422774 -1.749286 -5.227895 0.913235 3.681511 18.400303 -3.574928 -0.005693 0.940673 -0.2961 -10.737723 -7.761454 1.010402 28.761044 -40.401828 27.765301 40.457624 -50.000955 41.570153 179.959059 75.750129 0.033065 167.241503 33.249611 -152.844024 -98.939318 -46.842724 168.919216 -121.719641 -47.657577 -178.535084 0.000452 -0.000161 0.002542 83.582217 -44.118056 169.228314 91.655191 -0.499909 101.023124 -70.5975 23.659831 165.749226
-0.8311999999999999 60.8439 1.5168 -8.852615 -23.667256 4.229266 3.526102 11.26503 -36.073457 8.756443 -10.121463 54.292723 11.039724 22.869662 97.816306 -26.733944 6.732573 -68.349266 0.004746 -0.0 -0.001499 -0.000434 -0.0 0.004404 -157.223685 -16.577708 164.436926 142.676132 -18.72521 177.930019 -22.310725 -10.960152 112.750854 -69.587334 -82.885186 -79.127482 80.068251 -49.818393 31.403381 -145.743465 3.630828 112.200819 -44.172373 38.986519 34.519906 -61.352948 49.43549 42.710097 -167.061892 -27.029772 145.231747 -177.033512 -42.583443 142.344072 -145.121711 0.936679 -179.4227 -147.830891 -44.107488 -170.216201 -162.771096 72.91619 -150.798692 -2.405125 -9.137876 -4.582272 11.154466 37.913865 -12.815725 -111.167376 -23.066245 -79.930101 -170.957817 4.409645 -51.897833 -160.702037 -26.739443 -143.242317 -11.163057 -11.144547 0.63774 119.823891 -0.61195 -107.938768 105.019379 35.898942 -88.812243 -7.729745 -2.505334 6.598955 170.45015 -37.202467 -145.328764 2.983034 16.230221 -3.389477 145.120871 0.587484 179.31325 -11.858091 54.004557 2.515816 140.680048 -0.78557 137.744216 17.012611 -32.942635 19.094238 -0.004509 0.000449 -0.004398 -15.916348 -39.521038 72.614579 94.569806 -15.329882 -12.084753 -34.569431 34.451863 -92.505954 0.001883 0.000449 0.000574 83.821337 -44.161049 175.931236 82.335671 -3.460887 -158.873022 -1.266427 -9.45058 68.285921
